<svg xmlns="http://www.w3.org/2000/svg" height="512" viewBox="0 0 512 512" width="512"><g><path d="m504.855 210.343-97.855-60.143v-135.2c0-8.284-6.716-15-15-15h-272c-8.284 0-15 6.716-15 15v135.2l-97.854 60.143c-4.434 2.725-7.138 7.554-7.146 12.758s2.683 10.04 7.108 12.778l97.892 60.559v200.562c0 8.284 6.716 15 15 15h272c8.284 0 15-6.716 15-15v-200.562l97.892-60.559c4.426-2.738 7.116-7.574 7.108-12.778s-2.712-10.034-7.145-12.758zm-369.855-180.343h242v101.762l-113.145-69.541c-4.818-2.961-10.891-2.961-15.709 0l-113.146 69.541zm242 136.975v112.744l-121 74.854-121-74.854v-112.744l121-74.368zm-333.421 56.189 61.421-37.75v75.746zm333.421 258.836h-242v-167.004l113.108 69.972c2.418 1.495 5.155 2.243 7.892 2.243 2.736 0 5.474-.748 7.892-2.243l113.108-69.972zm30-220.84v-75.746l61.421 37.75z"></path><path d="m226 437c0 8.284 6.716 15 15 15h30c8.284 0 15-6.716 15-15s-6.716-15-15-15h-30c-8.284 0-15 6.716-15 15z"></path><path d="m248.558 135.416-65.333 37.333c-4.673 2.671-7.558 7.641-7.558 13.023v74.666c0 5.383 2.885 10.353 7.558 13.023l65.333 37.333c2.306 1.317 4.874 1.977 7.442 1.977s5.137-.659 7.442-1.977l65.333-37.333c4.673-2.671 7.558-7.641 7.558-13.023v-74.666c0-5.383-2.885-10.353-7.558-13.023l-65.333-37.333c-4.611-2.635-10.273-2.635-14.884 0zm-42.891 76.204 35.333 20.191v40.113l-35.333-20.19zm65.333 60.304v-40.113l35.333-20.19v40.113zm20.1-86.151-35.1 20.056-35.1-20.057 35.1-20.057z"></path></g></svg>