<svg xmlns="http://www.w3.org/2000/svg" height="512" viewBox="0 0 512 512" width="512"><g><path d="m15 90c8.284 0 15-6.716 15-15v-45h45c8.284 0 15-6.716 15-15s-6.716-15-15-15h-60c-8.284 0-15 6.716-15 15v60c0 8.284 6.716 15 15 15z"></path><path d="m497 0h-60c-8.284 0-15 6.716-15 15s6.716 15 15 15h45v45c0 8.284 6.716 15 15 15s15-6.716 15-15v-60c0-8.284-6.716-15-15-15z"></path><path d="m497 422c-8.284 0-15 6.716-15 15v45h-45c-8.284 0-15 6.716-15 15s6.716 15 15 15h60c8.284 0 15-6.716 15-15v-60c0-8.284-6.716-15-15-15z"></path><path d="m75 482h-45v-45c0-8.284-6.716-15-15-15s-15 6.716-15 15v60c0 8.284 6.716 15 15 15h60c8.284 0 15-6.716 15-15s-6.716-15-15-15z"></path><path d="m487.421 265.998c5.09-5.693 5.09-14.302 0-19.995-1.181-1.321-29.406-32.714-71.597-64.485-51.827-39.028-100.46-60.771-144.824-64.814v-101.704c0-8.284-6.716-15-15-15s-15 6.716-15 15v101.704c-44.364 4.042-92.997 25.786-144.824 64.813-42.191 31.771-70.415 63.164-71.597 64.485-5.09 5.693-5.09 14.302 0 19.995 1.181 1.321 29.406 32.714 71.597 64.485 51.827 39.027 100.46 60.771 144.824 64.814v101.704c0 8.284 6.716 15 15 15s15-6.716 15-15v-101.704c44.364-4.043 92.997-25.786 144.824-64.814 42.191-31.771 70.416-63.164 71.597-64.484zm-31.928-9.991c-13.596 13.728-40.622 39.316-74.179 62.361 9.391-18.791 14.686-39.971 14.686-62.368 0-22.363-5.279-43.514-14.645-62.285 33.525 23.032 60.543 48.584 74.138 62.292zm-184.493-47.705c20.264 6.387 35 25.352 35 47.698s-14.736 41.311-35 47.698zm-30 95.396c-20.264-6.387-35-25.353-35-47.698s14.736-41.311 35-47.698zm95-47.698c0-38.984-28.036-71.526-65-78.569v-30.403c53.583 7.339 95 53.406 95 108.973s-41.417 101.634-95 108.973v-30.403c36.964-7.045 65-39.587 65-78.571zm-95-108.973v30.403c-36.964 7.043-65 39.585-65 78.569s28.036 71.526 65 78.569v30.403c-53.583-7.339-95-53.406-95-108.973s41.417-101.632 95-108.971zm-184.493 108.966c13.596-13.728 40.623-39.316 74.179-62.36-9.391 18.791-14.686 39.971-14.686 62.367 0 22.363 5.28 43.514 14.644 62.285-33.524-23.031-60.542-48.584-74.137-62.292z"></path></g></svg>