<svg id="Layer_1" data-name="Layer 1" xmlns="http://www.w3.org/2000/svg" xmlns:xlink="http://www.w3.org/1999/xlink" viewBox="0 0 1028.45 638.8"><defs><style>.cls-1{fill:url(#radial-gradient);}</style><radialGradient id="radial-gradient" cx="514.33" cy="319.32" r="427.34" gradientUnits="userSpaceOnUse"><stop offset="0.05" stop-color="#2a217a"/><stop offset="0.77" stop-color="#0f054c"/><stop offset="1" stop-color="#0f054c"/></radialGradient></defs><title>1</title><path class="cls-1" d="M25.42.73C15.72,16.13.17,46,.79,83.48a131.47,131.47,0,0,0,5,34c2.14,7.23,8.48,26.22,27.5,48.75,26.32,31.15,57.26,45.83,88.92,60.46,31.27,14.44,56.32,21.72,78.83,28.16,8.08,2.31,10,2.71,107.84,24.84,7.34,1.66,32.37,7.37,63.33,16.66a389.33,389.33,0,0,1,38.5,13.5c11.4,4.72,20.47,8.47,31.5,15.09,19.09,11.45,34.54,20.71,37.67,37a40,40,0,0,1-2.59,22.83c-2,4.54-4.48,7.63-8.33,12.33a120.85,120.85,0,0,1-15,15.32l-.62.52c-7,5.84-14.34,12-22.92,18-5.76,4-5.65,3.49-10,6.75a74.76,74.76,0,0,0-11.33,9.75c-3.33,3.62-7.69,8.37-10.09,15.91a38.58,38.58,0,0,0-1.66,10.84A56.34,56.34,0,0,0,400,493.1c.87,2.76,4.88,14.89,20.75,32a156.73,156.73,0,0,0,21.5,19.25,403.69,403.69,0,0,0,54.5,34.5c81.59,41.26,163.75,53.38,163.75,53.38a560.26,560.26,0,0,0,66.25,5.5c47.09,1.17,82.13-3.74,120.5-9.13a817.63,817.63,0,0,0,87.75-17c21.79-5.5,36.23-10.17,51.25-16.5a305.34,305.34,0,0,0,41.59-21.41V1.69Z"/></svg>