<svg id="Logo" xmlns="http://www.w3.org/2000/svg" width="236" height="81" viewBox="0 0 236 81">
  <metadata><?xpacket begin="﻿" id="W5M0MpCehiHzreSzNTczkc9d"?>
<x:xmpmeta xmlns:x="adobe:ns:meta/" x:xmptk="Adobe XMP Core 5.6-c142 79.160924, 2017/07/13-01:06:39        ">
   <rdf:RDF xmlns:rdf="http://www.w3.org/1999/02/22-rdf-syntax-ns#">
      <rdf:Description rdf:about=""/>
   </rdf:RDF>
</x:xmpmeta>
                                                                                                    
                                                                                                    
                                                                                                    
                                                                                                    
                                                                                                    
                                                                                                    
                                                                                                    
                                                                                                    
                                                                                                    
                                                                                                    
                                                                                                    
                                                                                                    
                                                                                                    
                                                                                                    
                                                                                                    
                                                                                                    
                                                                                                    
                                                                                                    
                                                                                                    
                                                                                                    
                           
<?xpacket end="w"?></metadata>
<defs>
    <style>
      .cls-1 {
        fill: none;
        stroke: #00aeef;
        stroke-width: 1px;
      }

      .cls-1, .cls-4 {
        fill-rule: evenodd;
      }

      .cls-2, .cls-4 {
        fill: #fff;
      }

      .cls-3 {
        fill: #1bb7f1;
      }
    </style>
  </defs>
  <path class="cls-1" d="M59.24,35.123C74.806,54.009,79.919,72.482,70.662,76.385s-29.38-8.244-44.945-27.128S5.038,11.9,14.295,7.994,43.675,16.238,59.24,35.123Z"/>
  <ellipse class="cls-2" cx="56.922" cy="30.25" rx="26.453" ry="26.25"/>
  <ellipse id="Ellipse_13_" data-name="Ellipse 13 " class="cls-3" cx="59.328" cy="25.469" rx="21.641" ry="21.469"/>
  <circle class="cls-3" cx="11.219" cy="25.469" r="7.219"/>
  <circle id="Ellipse_14_" data-name="Ellipse 14 " class="cls-3" cx="76.156" cy="70.844" r="7.219"/>
  <path id="AI_Lab" data-name="AI Lab" class="cls-4" d="M135.662,43.55L123.733,17.988a2.779,2.779,0,0,0-1.184-1.315,3.422,3.422,0,0,0-3.4,0,2.781,2.781,0,0,0-1.185,1.315L106.076,43.55a2.662,2.662,0,0,0-.258,1.121,2.119,2.119,0,0,0,.818,1.681,2.739,2.739,0,0,0,1.809.69,2.528,2.528,0,0,0,1.335-.366,2.443,2.443,0,0,0,.947-1.142l2.584-5.776H128.47l2.584,5.776a2.385,2.385,0,0,0,2.24,1.509,2.715,2.715,0,0,0,1.83-.69,2.143,2.143,0,0,0,.8-1.681,2.649,2.649,0,0,0-.259-1.121h0ZM120.891,22.644l5.684,12.8H115.206Zm21.963,24.485a2.722,2.722,0,0,0,2.046-.776,2.786,2.786,0,0,0,.753-2.026v-25.3a2.713,2.713,0,0,0-.753-2,2.767,2.767,0,0,0-2.046-.754,2.592,2.592,0,0,0-2.756,2.759v25.3a2.786,2.786,0,0,0,.753,2.026,2.664,2.664,0,0,0,2,.776h0ZM166.5,46.87h15.03q2.583,0,2.583-2.285T181.527,42.3h-12.1V19.023a2.714,2.714,0,0,0-.754-2,2.763,2.763,0,0,0-2.045-.754,2.594,2.594,0,0,0-2.757,2.759V44.283a2.561,2.561,0,0,0,.69,1.9,2.614,2.614,0,0,0,1.938.69h0Zm29.93-21.6a18.551,18.551,0,0,0-4.113.474,14.058,14.058,0,0,0-3.6,1.293,3.472,3.472,0,0,0-1.227,1.013,2.21,2.21,0,0,0-.366,1.272,2.131,2.131,0,0,0,.5,1.466,1.618,1.618,0,0,0,1.27.56,4.3,4.3,0,0,0,1.637-.56q1.766-.689,3.058-1.056a9.294,9.294,0,0,1,2.541-.366,3.845,3.845,0,0,1,2.928.97,4.417,4.417,0,0,1,.9,3.082v0.991h-1.076a35.088,35.088,0,0,0-7.365.6,7.118,7.118,0,0,0-3.854,1.94,5.328,5.328,0,0,0-1.184,3.664,5.988,5.988,0,0,0,.99,3.362,6.815,6.815,0,0,0,2.713,2.371,8.445,8.445,0,0,0,3.833.862,6.91,6.91,0,0,0,3.639-.948,5.62,5.62,0,0,0,2.3-2.629v0.948a2.407,2.407,0,0,0,.711,1.81,2.516,2.516,0,0,0,1.83.69,2.605,2.605,0,0,0,1.9-.668,2.435,2.435,0,0,0,.689-1.832V34.067q0-4.439-2.132-6.617t-6.524-2.177h0Zm-1.335,18.062a3.413,3.413,0,0,1-2.39-.884,2.924,2.924,0,0,1-.969-2.263,2.3,2.3,0,0,1,.689-1.767,4.344,4.344,0,0,1,2.282-.905,29.682,29.682,0,0,1,4.479-.259h0.775v0.905a5.226,5.226,0,0,1-1.356,3.729,4.6,4.6,0,0,1-3.51,1.444h0Zm27.562-18.062a8.488,8.488,0,0,0-4,.927,6.438,6.438,0,0,0-2.713,2.651V18.678a2.238,2.238,0,0,0-.733-1.767,2.82,2.82,0,0,0-1.938-.647,2.789,2.789,0,0,0-1.959.69,2.337,2.337,0,0,0-.754,1.81V44.542a2.463,2.463,0,0,0,.711,1.854,2.633,2.633,0,0,0,1.916.69,2.71,2.71,0,0,0,1.938-.69,2.425,2.425,0,0,0,.732-1.854V43.464a6.742,6.742,0,0,0,2.735,2.759,8.249,8.249,0,0,0,4.07.991,8.717,8.717,0,0,0,4.845-1.379,9.147,9.147,0,0,0,3.316-3.9,13.5,13.5,0,0,0,1.184-5.8,13.073,13.073,0,0,0-1.184-5.733,8.694,8.694,0,0,0-8.161-5.13h0Zm-1.421,17.76a4.785,4.785,0,0,1-3.984-1.767,7.958,7.958,0,0,1-1.4-5.044,7.865,7.865,0,0,1,1.4-5.022,5.44,5.44,0,0,1,7.967-.022,7.7,7.7,0,0,1,1.4,4.957,8.062,8.062,0,0,1-1.421,5.087,4.754,4.754,0,0,1-3.962,1.811h0Z"/>
  <g id="Group_1_copy_2" data-name="Group 1 copy 2">
    <path class="cls-4" d="M63.736,13.447a8.488,8.488,0,0,1,6.3,4.723c1.968,4.231,3.208,1.967,3.149,0-0.1-3.3-3.3-8.217-7.873-7.872C60.575,10.654,61.571,12.955,63.736,13.447Z"/>
    <circle class="cls-2" cx="78.703" cy="69.344" r="3.922"/>
    <circle class="cls-2" cx="14.141" cy="22.109" r="2.359"/>
    <path class="cls-4" d="M74.388,22.911c0.866-.082,1.733,1.606,1.938,3.77s-0.331,3.985-1.2,4.067-1.733-1.606-1.938-3.771S73.522,22.993,74.388,22.911Z"/>
  </g>
</svg>
