<svg xmlns="http://www.w3.org/2000/svg" id="Logo" width="147" height="47" viewBox="0 0 147 47"><metadata></metadata><defs><style>
      .cls-1 {
        fill: none;
        stroke: #cc2b5e;
        stroke-width: 1px;
      }

      .cls-1, .cls-4, .cls-5 {
        fill-rule: evenodd;
      }

      .cls-2 {
        fill: #1e1666;
      }

      .cls-3 {
        fill: #cc2b5e;
      }

      .cls-4 {
        fill: #1e1566;
      }

      .cls-5, .cls-6 {
        fill: #fff;
      }
    </style></defs><path id="Ellipse_16_copy" data-name="Ellipse 16 copy" class="cls-1" d="M5.061,2.631c4.981-4.372,17.373,1.6,27.679,13.345s14.623,24.8,9.642,29.177S25.009,43.549,14.7,31.807,0.08,7,5.061,2.631Z"></path><ellipse class="cls-2" cx="32.719" cy="19.672" rx="16.813" ry="16.672"></ellipse><ellipse id="Ellipse_13_" data-name="Ellipse 13 " class="cls-3" cx="34.234" cy="16.641" rx="13.766" ry="13.641"></ellipse><ellipse class="cls-2" cx="3.641" cy="13.641" rx="4.578" ry="4.547"></ellipse><ellipse id="Ellipse_14_" data-name="Ellipse 14 " class="cls-2" cx="44.938" cy="42.453" rx="4.594" ry="4.547"></ellipse><path id="AI_Lab" data-name="AI Lab" class="cls-4" d="M80.448,27.72l-6.48-13.608a2.127,2.127,0,0,0-.816-0.864,2.277,2.277,0,0,0-2.28-.012,1.878,1.878,0,0,0-.792.876L63.6,27.72a1.924,1.924,0,0,0-.192.768,1.441,1.441,0,0,0,.552,1.14,1.878,1.878,0,0,0,1.248.468,1.6,1.6,0,0,0,.876-0.252,1.62,1.62,0,0,0,.612-0.756l1.272-2.832H76.1l1.272,2.832a1.592,1.592,0,0,0,.624.756,1.617,1.617,0,0,0,.864.252,1.834,1.834,0,0,0,1.236-.468,1.454,1.454,0,0,0,.54-1.14,1.93,1.93,0,0,0-.192-0.768h0Zm-8.4-10.536,2.784,6.24H69.24Zm12.528,12.96a1.739,1.739,0,0,0,1.872-1.872V14.808a1.817,1.817,0,0,0-.5-1.344,2.109,2.109,0,0,0-2.736,0,1.817,1.817,0,0,0-.5,1.344V28.272a1.739,1.739,0,0,0,1.872,1.872h0ZM98.255,30h8.136q1.752,0,1.752-1.512,0-1.536-1.752-1.536h-6.144V14.808a1.818,1.818,0,0,0-.5-1.344,2.109,2.109,0,0,0-2.736,0,1.817,1.817,0,0,0-.5,1.344v13.44A1.589,1.589,0,0,0,98.255,30h0Zm16.776-12.072a11.2,11.2,0,0,0-2.388.264,7.788,7.788,0,0,0-2.052.72,2,2,0,0,0-.7.576,1.361,1.361,0,0,0-.216.792,1.461,1.461,0,0,0,.312.972,1.039,1.039,0,0,0,.84.372,2.258,2.258,0,0,0,.936-0.264,9.435,9.435,0,0,1,2.976-.72,2,2,0,0,1,1.476.456,2.042,2.042,0,0,1,.444,1.464v0.432h-0.624a18.768,18.768,0,0,0-4.008.336,3.947,3.947,0,0,0-2.124,1.08,2.966,2.966,0,0,0-.66,2.04,3.437,3.437,0,0,0,.564,1.92,3.8,3.8,0,0,0,1.536,1.344,4.84,4.84,0,0,0,2.172.48,3.752,3.752,0,0,0,1.968-.5,2.826,2.826,0,0,0,1.2-1.392v0.168a1.64,1.64,0,0,0,.468,1.212,1.671,1.671,0,0,0,1.236.468,1.746,1.746,0,0,0,1.272-.444,1.645,1.645,0,0,0,.456-1.236V23.04a5.274,5.274,0,0,0-1.248-3.852,5.2,5.2,0,0,0-3.84-1.26h0Zm-0.72,9.768a1.559,1.559,0,0,1-1.116-.42,1.434,1.434,0,0,1-.444-1.092,1.129,1.129,0,0,1,.78-1.128,8.206,8.206,0,0,1,2.724-.312h0.408v0.408a2.612,2.612,0,0,1-.648,1.836,2.2,2.2,0,0,1-1.7.708h0Zm15.816-9.768a4.743,4.743,0,0,0-2.172.492,3.584,3.584,0,0,0-1.5,1.38V14.544a1.474,1.474,0,0,0-.48-1.152,1.829,1.829,0,0,0-1.272-.432,1.973,1.973,0,0,0-1.356.456,1.525,1.525,0,0,0-.516,1.2V28.44a1.626,1.626,0,0,0,.492,1.236,1.819,1.819,0,0,0,1.308.468,1.777,1.777,0,0,0,1.3-.468,1.648,1.648,0,0,0,.48-1.236V28.248a3.67,3.67,0,0,0,1.512,1.428,4.683,4.683,0,0,0,2.208.516,4.808,4.808,0,0,0,2.7-.78,5.173,5.173,0,0,0,1.848-2.184,7.506,7.506,0,0,0,.66-3.228,7.348,7.348,0,0,0-.66-3.2,4.83,4.83,0,0,0-4.548-2.868h0Zm-1.056,9.5a2.368,2.368,0,0,1-1.968-.876,3.949,3.949,0,0,1-.7-2.508,3.908,3.908,0,0,1,.7-2.484,2.369,2.369,0,0,1,1.968-.876,2.4,2.4,0,0,1,1.968.852,3.8,3.8,0,0,1,.7,2.46,4.056,4.056,0,0,1-.7,2.532,2.343,2.343,0,0,1-1.968.9h0Z"></path><g id="Group_1_copy" data-name="Group 1 copy"><path class="cls-5" d="M38,9a5.391,5.391,0,0,1,4,3c1.25,2.688,2.037,1.249,2,0-0.062-2.094-2.094-5.219-5-5C35.992,7.226,36.625,8.688,38,9Z"></path><circle class="cls-6" cx="47.5" cy="41.5" r="2.5"></circle><circle class="cls-6" cx="5.5" cy="11.5" r="1.5"></circle><path class="cls-5" d="M44.765,15.011c0.55-.052,1.1,1.02,1.231,2.395s-0.211,2.531-.76,2.583-1.1-1.02-1.231-2.395S44.215,15.063,44.765,15.011Z"></path></g></svg>