<svg xmlns="http://www.w3.org/2000/svg" height="512pt" viewBox="-22 0 512 512" width="512pt"><path d="m445.90625 333.632812c-2.929688-1.691406-5.992188-2.945312-9.109375-3.789062v-61.855469c0-5.519531-4.480469-10-10-10-5.523437 0-10 4.480469-10 10v61.875c-9.410156 2.550781-17.855469 8.667969-23.101563 17.757813-5.105468 8.84375-6.460937 19.144531-3.820312 29.003906.011719.042969.027344.082031.035156.121094l-132.25 76.359375c-6.070312-5.644531-14.199218-9.105469-23.121094-9.105469-8.925781 0-17.050781 3.460938-23.125 9.105469l-132.207031-76.332031c2.496094-9.425782 1.421875-19.800782-3.828125-28.890626-5.085937-8.8125-13.285156-15.117187-23.101562-17.777343v-143.339844c.3125-.078125.628906-.136719.9375-.21875 10.90625-2.921875 20.019531-9.914063 25.660156-19.691406 6.117188-10.589844 7.101562-22.75 3.75-33.601563l128.789062-74.355468c6.074219 5.640624 14.199219 9.101562 23.121094 9.101562 8.925782 0 17.050782-3.460938 23.125-9.101562l128.621094 74.257812c-3.144531 10.710938-2.089844 22.632812 3.917969 33.039062 7.816406 13.539063 22.050781 21.121094 36.667969 21.121094 7.164062 0 14.421874-1.824218 21.058593-5.65625 20.179688-11.648437 27.117188-37.546875 15.46875-57.726562-11.652343-20.179688-37.546875-27.117188-57.730469-15.46875-3.546874 2.050781-6.679687 4.550781-9.382812 7.371094l-128.609375-74.25c.558594-2.441407.863281-4.976563.863281-7.585938 0-18.746094-15.25-34-34-34-18.746094 0-34 15.253906-34 34 0 2.609375.304688 5.144531.863282 7.585938l-129.019532 74.488281c-2.605468-2.648438-5.597656-5-8.96875-6.945313-20.183594-11.652344-46.078125-4.714844-57.730468 15.46875-5.6445318 9.773438-7.144532 21.164063-4.222657 32.066406 2.921875 10.902344 9.917969 20.015626 19.691407 25.660157 3.53125 2.039062 7.277343 3.515625 11.128906 4.460937v143.308594c-3.148438.859375-6.207032 2.121094-9.109375 3.796875-18.253907 10.539063-24.527344 33.960937-13.992188 52.214844 5.105469 8.839843 13.347657 15.164062 23.210938 17.808593 3.292969.882813 6.636719 1.316407 9.953125 1.316407 6.625 0 13.160156-1.734375 19.050781-5.136719 2.925781-1.6875 5.539063-3.710938 7.832031-5.992188l132.175782 76.3125c-.558594 2.441407-.863282 4.980469-.863282 7.585938 0 18.746094 15.253906 34 34 34 18.75 0 34-15.253906 34-34 0-2.605469-.304687-5.144531-.863281-7.585938l132.332031-76.402343c2.277344 2.230469 4.847656 4.1875 7.679688 5.824219 6.003906 3.464843 12.566406 5.113281 19.046875 5.109374 13.21875 0 26.09375-6.851562 33.164062-19.101562 5.105469-8.84375 6.460938-19.144531 3.820313-29.003906s-8.96875-18.105469-17.808594-23.207032zm-30.242188-207.847656c3.496094-2.019531 7.320313-2.976562 11.09375-2.976562 7.699219 0 15.195313 3.992187 19.3125 11.125 6.136719 10.628906 2.480469 24.269531-8.144531 30.40625-10.632812 6.136718-24.269531 2.480468-30.410156-8.148438-6.136719-10.628906-2.480469-24.269531 8.148437-30.40625zm-181.128906-105.785156c7.722656 0 14 6.28125 14 14s-6.277344 14-14 14c-7.71875 0-14-6.28125-14-14s6.28125-14 14-14zm-213.757812 131.484375c-1.539063-5.742187-.746094-11.738281 2.226562-16.890625 4.117188-7.132812 11.613282-11.125 19.3125-11.125 3.773438 0 7.597656.960938 11.09375 2.980469 10.628906 6.136719 14.285156 19.777343 8.144532 30.40625-2.972657 5.148437-7.769532 8.832031-13.515626 10.371093-5.742187 1.539063-11.738281.75-16.890624-2.222656-5.148438-2.972656-8.832032-7.773437-10.371094-13.519531zm30.613281 231.289063c-4.214844 2.433593-9.125 3.078124-13.828125 1.820312-4.699219-1.257812-8.628906-4.273438-11.0625-8.488281-2.433594-4.21875-3.082031-9.128907-1.820312-13.828125 1.261718-4.703125 4.273437-8.632813 8.488281-11.066406 8.703125-5.023438 19.871093-2.03125 24.894531 6.671874 5.019531 8.703126 2.027344 19.867188-6.671875 24.890626zm183.144531 109.226562c-7.71875 0-14-6.28125-14-14s6.28125-14 14-14c7.722656 0 14 6.28125 14 14s-6.277344 14-14 14zm208.042969-116.15625c-5.027344 8.703125-16.195313 11.691406-24.894531 6.671875-8.699219-5.023437-11.691406-16.191406-6.671875-24.894531 2.4375-4.214844 6.363281-7.230469 11.066406-8.488282 1.570313-.421874 3.164063-.628906 4.746094-.628906 3.15625 0 6.273437.828125 9.082031 2.449219 4.214844 2.433594 7.230469 6.363281 8.488281 11.0625 1.261719 4.703125.613281 9.613281-1.816406 13.828125zm0 0"></path><path d="m168.679688 325.988281c-2.640626 0-5.210938 1.070313-7.078126 2.933594-1.859374 1.859375-2.929687 4.4375-2.929687 7.066406 0 2.632813 1.066406 5.210938 2.929687 7.070313 1.867188 1.859375 4.4375 2.929687 7.078126 2.929687 2.628906 0 5.199218-1.066406 7.0625-2.929687 1.867187-1.859375 2.9375-4.4375 2.9375-7.070313 0-2.628906-1.070313-5.207031-2.9375-7.066406-1.863282-1.863281-4.433594-2.933594-7.0625-2.933594zm0 0"></path><path d="m204.800781 325.988281c-2.628906 0-5.210937 1.070313-7.070312 2.933594-1.859375 1.859375-2.921875 4.4375-2.921875 7.066406 0 2.632813 1.0625 5.210938 2.921875 7.070313s4.441406 2.929687 7.070312 2.929687c2.628907 0 5.210938-1.066406 7.070313-2.929687 1.867187-1.859375 2.929687-4.4375 2.929687-7.070313 0-2.628906-1.0625-5.207031-2.929687-7.066406-1.859375-1.863281-4.429688-2.933594-7.070313-2.933594zm0 0"></path><path d="m301.109375 325.988281h-48.214844c-5.523437 0-10 4.480469-10 10 0 5.523438 4.476563 10 10 10h48.214844c5.523437 0 10-4.476562 10-10 0-5.519531-4.476563-10-10-10zm0 0"></path><path d="m350.550781 155.988281c0-16.539062-13.457031-30-30-30h-172c-16.542969 0-30 13.460938-30 30v40c0 7.679688 2.902344 14.691407 7.664063 20-4.761719 5.3125-7.664063 12.324219-7.664063 20v40c0 7.679688 2.902344 14.691407 7.664063 20-4.761719 5.3125-7.664063 12.324219-7.664063 20v40c0 16.542969 13.457031 30 30 30h172c16.542969 0 30-13.457031 30-30v-40c0-7.675781-2.902343-14.6875-7.664062-20 4.761719-5.308593 7.664062-12.320312 7.664062-20v-40c0-7.675781-2.902343-14.6875-7.664062-20 4.761719-5.308593 7.664062-12.320312 7.664062-20zm-212 0c0-5.511719 4.484375-10 10-10h172c5.515625 0 10 4.488281 10 10v40c0 5.515625-4.484375 10-10 10h-172c-5.515625 0-10-4.484375-10-10zm192 80v40c0 5.515625-4.484375 10-10 10h-172c-5.515625 0-10-4.484375-10-10v-40c0-5.511719 4.484375-10 10-10h172c5.515625 0 10 4.488281 10 10zm0 120c0 5.515625-4.484375 10-10 10h-172c-5.515625 0-10-4.484375-10-10v-40c0-5.511719 4.484375-10 10-10h172c5.515625 0 10 4.488281 10 10zm0 0"></path><path d="m168.679688 185.988281c2.628906 0 5.199218-1.066406 7.0625-2.929687 1.867187-1.859375 2.9375-4.4375 2.9375-7.070313 0-2.628906-1.070313-5.207031-2.9375-7.066406-1.859376-1.863281-4.433594-2.933594-7.0625-2.933594-2.640626 0-5.210938 1.070313-7.078126 2.933594-1.859374 1.859375-2.929687 4.4375-2.929687 7.066406 0 2.632813 1.066406 5.210938 2.929687 7.070313 1.867188 1.863281 4.449219 2.929687 7.078126 2.929687zm0 0"></path><path d="m204.800781 185.988281c2.628907 0 5.210938-1.066406 7.070313-2.929687 1.867187-1.859375 2.929687-4.4375 2.929687-7.070313 0-2.628906-1.0625-5.207031-2.929687-7.066406-1.859375-1.863281-4.429688-2.933594-7.070313-2.933594-2.628906 0-5.210937 1.070313-7.070312 2.933594-1.859375 1.859375-2.921875 4.4375-2.921875 7.066406 0 2.632813 1.0625 5.210938 2.921875 7.070313 1.859375 1.863281 4.441406 2.929687 7.070312 2.929687zm0 0"></path><path d="m252.894531 185.988281h48.214844c5.523437 0 10-4.476562 10-10 0-5.519531-4.476563-10-10-10h-48.214844c-5.523437 0-10 4.480469-10 10 0 5.523438 4.476563 10 10 10zm0 0"></path><path d="m168.679688 265.988281c2.628906 0 5.199218-1.066406 7.0625-2.929687 1.867187-1.859375 2.9375-4.4375 2.9375-7.070313 0-2.628906-1.070313-5.207031-2.9375-7.066406-1.859376-1.863281-4.433594-2.933594-7.0625-2.933594-2.640626 0-5.210938 1.070313-7.078126 2.933594-1.859374 1.859375-2.929687 4.4375-2.929687 7.066406 0 2.632813 1.066406 5.210938 2.929687 7.070313 1.867188 1.863281 4.4375 2.929687 7.078126 2.929687zm0 0"></path><path d="m204.800781 265.988281c2.628907 0 5.210938-1.066406 7.070313-2.929687 1.867187-1.859375 2.929687-4.4375 2.929687-7.070313 0-2.628906-1.0625-5.207031-2.929687-7.066406-1.859375-1.863281-4.429688-2.933594-7.070313-2.933594-2.628906 0-5.210937 1.070313-7.070312 2.933594-1.859375 1.859375-2.921875 4.4375-2.921875 7.066406 0 2.632813 1.0625 5.210938 2.921875 7.070313 1.859375 1.863281 4.441406 2.929687 7.070312 2.929687zm0 0"></path><path d="m252.894531 265.988281h48.214844c5.523437 0 10-4.476562 10-10 0-5.519531-4.476563-10-10-10h-48.214844c-5.523437 0-10 4.480469-10 10 0 5.523438 4.476563 10 10 10zm0 0"></path><path d="m419.71875 216.289062c-1.859375 1.871094-2.929688 4.441407-2.929688 7.082032 0 2.628906 1.070313 5.199218 2.929688 7.066406 1.859375 1.863281 4.441406 2.921875 7.070312 2.921875 2.640626 0 5.210938-1.058594 7.070313-2.921875 1.871094-1.867188 2.929687-4.4375 2.929687-7.066406 0-2.640625-1.058593-5.210938-2.929687-7.082032-1.859375-1.859374-4.429687-2.917968-7.070313-2.917968-2.628906 0-5.210937 1.058594-7.070312 2.917968zm0 0"></path></svg>