<svg id="Logo" xmlns="http://www.w3.org/2000/svg" width="147" height="47" viewBox="0 0 147 47">
  <metadata><?xpacket begin="﻿" id="W5M0MpCehiHzreSzNTczkc9d"?>
<x:xmpmeta xmlns:x="adobe:ns:meta/" x:xmptk="Adobe XMP Core 5.6-c142 79.160924, 2017/07/13-01:06:39        ">
   <rdf:RDF xmlns:rdf="http://www.w3.org/1999/02/22-rdf-syntax-ns#">
      <rdf:Description rdf:about=""/>
   </rdf:RDF>
</x:xmpmeta>
                                                                                                    
                                                                                                    
                                                                                                    
                                                                                                    
                                                                                                    
                                                                                                    
                                                                                                    
                                                                                                    
                                                                                                    
                                                                                                    
                                                                                                    
                                                                                                    
                                                                                                    
                                                                                                    
                                                                                                    
                                                                                                    
                                                                                                    
                                                                                                    
                                                                                                    
                                                                                                    
                           
<?xpacket end="w"?></metadata>
<defs>
    <style>
      .cls-1 {
        fill: none;
        stroke: #cc2b5e;
        stroke-width: 1px;
      }

      .cls-1, .cls-4, .cls-5 {
        fill-rule: evenodd;
      }

      .cls-2 {
        fill: #1e1666;
      }

      .cls-3 {
        fill: #cc2b5e;
      }

      .cls-4 {
        fill: #1e1566;
      }

      .cls-5, .cls-6 {
        fill: #fff;
      }
    </style>
  </defs>
  <path id="Ellipse_16_copy" data-name="Ellipse 16 copy" class="cls-1" d="M5.061,2.631c4.981-4.372,17.373,1.6,27.679,13.345s14.623,24.8,9.642,29.177S25.009,43.549,14.7,31.807,0.08,7,5.061,2.631Z"/>
  <ellipse class="cls-2" cx="32.719" cy="16.672" rx="16.813" ry="16.672"/>
  <ellipse id="Ellipse_13_" data-name="Ellipse 13 " class="cls-3" cx="34.234" cy="13.641" rx="13.766" ry="13.641"/>
  <ellipse class="cls-2" cx="3.641" cy="13.641" rx="4.578" ry="4.547"/>
  <ellipse id="Ellipse_14_" data-name="Ellipse 14 " class="cls-2" cx="44.938" cy="42.453" rx="4.594" ry="4.547"/>
  <path id="AI_Lab" data-name="AI Lab" class="cls-4" d="M80.244,25.152L73.589,10.92a1.55,1.55,0,0,0-.661-0.732,1.913,1.913,0,0,0-1.9,0,1.548,1.548,0,0,0-.661.732L63.739,25.152a1.478,1.478,0,0,0-.144.624,1.18,1.18,0,0,0,.456.936,1.53,1.53,0,0,0,1.009.384,1.412,1.412,0,0,0,.745-0.2,1.363,1.363,0,0,0,.529-0.636l1.441-3.216h8.456l1.441,3.216a1.33,1.33,0,0,0,1.249.84,1.516,1.516,0,0,0,1.021-.384,1.192,1.192,0,0,0,.445-0.936,1.478,1.478,0,0,0-.144-0.624h0ZM72,13.512l3.171,7.128H68.833ZM86.658,27.144a1.519,1.519,0,0,0,1.141-.432,1.55,1.55,0,0,0,.42-1.128V11.5a1.509,1.509,0,0,0-.42-1.116,1.544,1.544,0,0,0-1.141-.42A1.445,1.445,0,0,0,85.12,11.5V25.584a1.548,1.548,0,0,0,.42,1.128,1.487,1.487,0,0,0,1.117.432h0ZM104.652,27h8.384a1.282,1.282,0,1,0,0-2.544h-6.751V11.5a1.509,1.509,0,0,0-.42-1.116,1.545,1.545,0,0,0-1.141-.42,1.446,1.446,0,0,0-1.538,1.536V25.56a1.427,1.427,0,0,0,.384,1.056,1.463,1.463,0,0,0,1.082.384h0Zm19.1-12.024a10.364,10.364,0,0,0-2.294.264,7.854,7.854,0,0,0-2.006.72,1.944,1.944,0,0,0-.685.564,1.229,1.229,0,0,0-.2.708,1.186,1.186,0,0,0,.276.816,0.9,0.9,0,0,0,.709.312,2.406,2.406,0,0,0,.913-0.312q0.986-.384,1.706-0.588a5.193,5.193,0,0,1,1.417-.2,2.148,2.148,0,0,1,1.634.54,2.458,2.458,0,0,1,.5,1.716v0.552h-0.6a19.6,19.6,0,0,0-4.108.336,3.968,3.968,0,0,0-2.15,1.08,2.961,2.961,0,0,0-.661,2.04,3.335,3.335,0,0,0,.552,1.872,3.8,3.8,0,0,0,1.514,1.32,4.716,4.716,0,0,0,2.138.48,3.861,3.861,0,0,0,2.03-.528A3.127,3.127,0,0,0,125.72,25.2v0.528a1.337,1.337,0,0,0,.4,1.008,1.4,1.4,0,0,0,1.021.384,1.457,1.457,0,0,0,1.057-.372,1.354,1.354,0,0,0,.384-1.02V19.872a5.07,5.07,0,0,0-1.189-3.684,4.9,4.9,0,0,0-3.64-1.212h0Zm-0.744,10.056a1.909,1.909,0,0,1-1.334-.492,1.628,1.628,0,0,1-.54-1.26,1.284,1.284,0,0,1,.384-0.984,2.427,2.427,0,0,1,1.273-.5,16.6,16.6,0,0,1,2.5-.144h0.432v0.5a2.908,2.908,0,0,1-.756,2.076,2.569,2.569,0,0,1-1.958.8h0Zm17.777-10.056a4.74,4.74,0,0,0-2.234.516,3.6,3.6,0,0,0-1.514,1.476V11.3a1.245,1.245,0,0,0-.408-0.984,1.575,1.575,0,0,0-1.081-.36,1.557,1.557,0,0,0-1.093.384,1.3,1.3,0,0,0-.421,1.008V25.7a1.371,1.371,0,0,0,.4,1.032,1.469,1.469,0,0,0,1.069.384,1.515,1.515,0,0,0,1.081-.384,1.349,1.349,0,0,0,.408-1.032V25.1a3.754,3.754,0,0,0,1.526,1.536,4.606,4.606,0,0,0,2.27.552,4.872,4.872,0,0,0,2.7-.768,5.1,5.1,0,0,0,1.85-2.172,7.506,7.506,0,0,0,.66-3.228,7.269,7.269,0,0,0-.66-3.192,4.851,4.851,0,0,0-4.553-2.856h0Zm-0.793,9.888a2.67,2.67,0,0,1-2.222-.984,4.427,4.427,0,0,1-.781-2.808,4.376,4.376,0,0,1,.781-2.8,3.04,3.04,0,0,1,4.445-.012,4.281,4.281,0,0,1,.78,2.76,4.484,4.484,0,0,1-.792,2.832,2.655,2.655,0,0,1-2.211,1.008h0Z"/>
  <g id="Group_1_copy" data-name="Group 1 copy">
    <path class="cls-5" d="M38,6a5.391,5.391,0,0,1,4,3c1.25,2.688,2.037,1.249,2,0-0.062-2.094-2.094-5.219-5-5C35.992,4.226,36.625,5.688,38,6Z"/>
    <circle class="cls-6" cx="47.5" cy="41.5" r="2.5"/>
    <circle class="cls-6" cx="5.5" cy="11.5" r="1.5"/>
    <path class="cls-5" d="M44.765,12.011c0.55-.052,1.1,1.02,1.231,2.395s-0.211,2.531-.76,2.583-1.1-1.02-1.231-2.395S44.215,12.063,44.765,12.011Z"/>
  </g>
</svg>
