<svg xmlns:dc="http://purl.org/dc/elements/1.1/" xmlns:cc="http://creativecommons.org/ns#" xmlns:rdf="http://www.w3.org/1999/02/22-rdf-syntax-ns#" xmlns:svg="http://www.w3.org/2000/svg" xmlns="http://www.w3.org/2000/svg" xmlns:sodipodi="http://sodipodi.sourceforge.net/DTD/sodipodi-0.dtd" xmlns:inkscape="http://www.inkscape.org/namespaces/inkscape" width="100mm" height="100mm" viewBox="0 0 377.95276 377.95276" id="svg8" sodipodi:docname="computer-vision-icon.svg" inkscape:version="0.92.3 (2405546, 2018-03-11)"><metadata id="metadata14"></metadata><defs id="defs12"></defs><g id="Icon" transform="matrix(2.7346738,0,0,2.7346738,-656.81421,-777.2413)"><path id="Pfad_1" data-name="Pfad 1" d="m 368.962,347.592 c -9.995,-10.962 -30.47,-29.233 -54.6,-29.233 -24.13,0 -44.609,18.27 -54.6,29.233 a 13.978,13.978 0 0 0 0,19.244 c 9.995,10.962 30.47,29.233 54.6,29.233 24.13,0 44.608,-18.27 54.6,-29.233 a 13.976,13.976 0 0 0 0,-19.244 z" transform="translate(2.474,1.752)" inkscape:connector-curvature="0" style="fill:#cedbef"></path><circle id="Ellipse_1" data-name="Ellipse 1" cx="19.388" cy="19.388" r="19.388" transform="translate(297.411,339.703)" style="fill:#4890ca"></circle><g id="Auge-Outline" transform="translate(245.276,310.821)"><path id="Pfad_2" data-name="Pfad 2" d="m 358.322,340.054 c -9.995,-10.962 -30.47,-29.233 -54.6,-29.233 -24.13,0 -44.608,18.27 -54.6,29.233 a 13.977,13.977 0 0 0 0,19.246 c 9.995,10.962 30.47,29.233 54.6,29.233 24.13,0 44.609,-18.27 54.6,-29.233 a 13.98,13.98 0 0 0 0,-19.246 z" transform="translate(-245.276,-310.821)" stroke-miterlimit="10" inkscape:connector-curvature="0" style="fill:none;stroke:#0b3558;stroke-width:4;stroke-miterlimit:10"></path><circle id="Ellipse_2" data-name="Ellipse 2" cx="19.388" cy="19.388" r="19.388" transform="translate(39.055,19.628)" stroke-miterlimit="10" style="fill:none;stroke:#0b3558;stroke-width:4;stroke-miterlimit:10"></circle></g></g></svg>