<svg id="Layer_1" data-name="Layer 1" xmlns="http://www.w3.org/2000/svg" xmlns:xlink="http://www.w3.org/1999/xlink" viewBox="0 0 512 512"><defs><style>.cls-1{fill:url(#New_Gradient_Swatch_3);}.cls-2{fill:#6aaeff;}.cls-3{fill:#3386ff;}.cls-4{fill:#005eff;}</style><linearGradient id="New_Gradient_Swatch_3" x1="123.07" y1="381.36" x2="186.51" y2="444.8" gradientTransform="matrix(2.67, 0, 0, -2.67, -93.33, 1442.33)" gradientUnits="userSpaceOnUse"><stop offset="0" stop-color="#6aaeff"/><stop offset="1" stop-color="#005eff"/></linearGradient></defs><title>004-pie chart</title><path class="cls-1" d="M425.18,277.33H256V446.51A149.55,149.55,0,0,0,425.18,277.33Z"/><path class="cls-2" d="M213.33,85.33a149.34,149.34,0,0,0,0,298.67V234.67H362.67A149.52,149.52,0,0,0,213.33,85.33Z"/><path class="cls-3" d="M106.67,192a148.44,148.44,0,0,1,24.63-82,149.28,149.28,0,0,0,82,274V335.09A149.58,149.58,0,0,1,106.67,192Z"/><path class="cls-4" d="M252.42,182.5l-35.5-23.67,85.33-128A21.35,21.35,0,0,1,320,21.33H448V64H331.42Z"/><path class="cls-3" d="M0,0H106.67V42.67H0Z"/><path class="cls-3" d="M42.67,64h64v42.67h-64Z"/><path class="cls-2" d="M512,490.67H426.67a21.37,21.37,0,0,1-16.66-8L324.67,376,358,349.33,436.93,448H512Z"/><path class="cls-3" d="M85.33,405.33h85.34V448H85.33Z"/><path class="cls-3" d="M42.67,469.33h128V512h-128Z"/></svg>