<svg id="Layer_1" data-name="Layer 1" xmlns="http://www.w3.org/2000/svg" xmlns:xlink="http://www.w3.org/1999/xlink" viewBox="0 0 505.66 505.74"><defs><style>.cls-1{fill:#6aaeff;}.cls-2{fill:#3386ff;}.cls-3{fill:#005eff;}.cls-4{fill:#fff;}.cls-5{fill:url(#New_Gradient_Swatch_3);}.cls-6{fill:url(#New_Gradient_Swatch_3-2);}.cls-7{fill:url(#New_Gradient_Swatch_3-3);}.cls-8{fill:#cae2ff;}</style><linearGradient id="New_Gradient_Swatch_3" x1="149.83" y1="444.88" x2="149.83" y2="407.22" gradientTransform="matrix(2.67, 0, 0, -2.67, -93.33, 1442.33)" gradientUnits="userSpaceOnUse"><stop offset="0" stop-color="#6aaeff"/><stop offset="1" stop-color="#005eff"/></linearGradient><linearGradient id="New_Gradient_Swatch_3-2" x1="162.39" y1="441.68" x2="162.39" y2="385.3" xlink:href="#New_Gradient_Swatch_3"/><linearGradient id="New_Gradient_Swatch_3-3" x1="173.12" y1="424.63" x2="173.12" y2="380.87" xlink:href="#New_Gradient_Swatch_3"/></defs><title>009-pie chart</title><circle class="cls-1" cx="213.35" cy="213.33" r="213.33"/><path class="cls-2" d="M256,384C138.18,384,42.67,288.49,42.67,170.67a213.34,213.34,0,0,1,42.66-128C-8.92,113.36-28,247.08,42.67,341.33S247.08,454.69,341.33,384A213,213,0,0,0,384,341.33,212.35,212.35,0,0,1,256,384Z" transform="translate(0.01 0)"/><path class="cls-3" d="M85.33,42.67A213,213,0,0,0,0,213.33H46.93A213.73,213.73,0,0,1,85.33,42.67Z" transform="translate(0.01 0)"/><path class="cls-2" d="M213.33,0a212.37,212.37,0,0,0-128,42.67,213.73,213.73,0,0,0-38.4,170.66h166.4Z" transform="translate(0.01 0)"/><path class="cls-1" d="M390.16,420.42l30.17-30.16,85.32,85.32-30.17,30.16Z" transform="translate(0.01 0)"/><circle class="cls-4" cx="341.35" cy="341.33" r="85.33"/><path class="cls-5" d="M356.42,257.38a85.17,85.17,0,0,0-99,99Z" transform="translate(0.01 0)"/><path class="cls-6" d="M378.48,264.53l-114,114a85.52,85.52,0,0,0,33.53,36.39L414.87,298.06A85.52,85.52,0,0,0,378.48,264.53Z" transform="translate(0.01 0)"/><path class="cls-7" d="M420.67,310,310,420.67A85.25,85.25,0,0,0,420.67,310Z" transform="translate(0.01 0)"/><path class="cls-8" d="M341.33,448A106.67,106.67,0,1,1,448,341.33,106.66,106.66,0,0,1,341.33,448Zm0-170.67a64,64,0,1,0,64,64A64,64,0,0,0,341.33,277.33Z" transform="translate(0.01 0)"/></svg>