<svg id="Logo" xmlns="http://www.w3.org/2000/svg" width="125" height="41" viewBox="0 0 125 41">
  <metadata><?xpacket begin="﻿" id="W5M0MpCehiHzreSzNTczkc9d"?>
<x:xmpmeta xmlns:x="adobe:ns:meta/" x:xmptk="Adobe XMP Core 5.6-c142 79.160924, 2017/07/13-01:06:39        ">
   <rdf:RDF xmlns:rdf="http://www.w3.org/1999/02/22-rdf-syntax-ns#">
      <rdf:Description rdf:about=""/>
   </rdf:RDF>
</x:xmpmeta>
                                                                                                    
                                                                                                    
                                                                                                    
                                                                                                    
                                                                                                    
                                                                                                    
                                                                                                    
                                                                                                    
                                                                                                    
                                                                                                    
                                                                                                    
                                                                                                    
                                                                                                    
                                                                                                    
                                                                                                    
                                                                                                    
                                                                                                    
                                                                                                    
                                                                                                    
                                                                                                    
                           
<?xpacket end="w"?></metadata>
<defs>
    <style>
      .cls-1 {
        fill: none;
        stroke: #fff;
        stroke-width: 1px;
      }

      .cls-1, .cls-3 {
        fill-rule: evenodd;
      }

      .cls-2, .cls-3 {
        fill: #fff;
      }
    </style>
  </defs>
  <path class="cls-1" d="M5,2.59C9.143-1.151,19.853,3.956,28.924,14S41.99,35.209,37.849,38.95,23,37.585,13.927,27.544,0.86,6.331,5,2.59Z"/>
  <ellipse class="cls-2" cx="28.656" cy="14.188" rx="14.344" ry="14.188"/>
  <ellipse class="cls-2" cx="3.906" cy="11.609" rx="3.906" ry="3.859"/>
  <circle id="Ellipse_14_" data-name="Ellipse 14 " class="cls-2" cx="39.094" cy="36.125" r="3.906"/>
  <path id="AI_Lab" data-name="AI Lab" class="cls-3" d="M69.367,23.46L63.821,11.6a1.292,1.292,0,0,0-.551-0.61,1.595,1.595,0,0,0-1.582,0,1.29,1.29,0,0,0-.551.61L55.611,23.46a1.232,1.232,0,0,0-.12.52,0.983,0.983,0,0,0,.381.78,1.275,1.275,0,0,0,.841.32,1.177,1.177,0,0,0,.621-0.17,1.135,1.135,0,0,0,.441-0.53l1.2-2.68h7.048l1.2,2.68a1.108,1.108,0,0,0,1.041.7,1.264,1.264,0,0,0,.851-0.32,0.993,0.993,0,0,0,.37-0.78,1.232,1.232,0,0,0-.12-0.52h0ZM62.5,13.76l2.643,5.94H59.856ZM74.714,25.12a1.266,1.266,0,0,0,.951-0.36,1.291,1.291,0,0,0,.35-0.94V12.08a1.257,1.257,0,0,0-.35-0.93,1.287,1.287,0,0,0-.951-0.35,1.2,1.2,0,0,0-1.281,1.28V23.82a1.29,1.29,0,0,0,.35.94,1.24,1.24,0,0,0,.931.36h0Zm15-.12H96.7a1.068,1.068,0,1,0,0-2.12H91.073V12.08a1.257,1.257,0,0,0-.35-0.93,1.287,1.287,0,0,0-.951-0.35,1.2,1.2,0,0,0-1.281,1.28V23.8a1.187,1.187,0,0,0,.32.88,1.218,1.218,0,0,0,.9.32h0ZM105.63,14.98a8.632,8.632,0,0,0-1.912.22,6.539,6.539,0,0,0-1.672.6,1.615,1.615,0,0,0-.571.47,1.019,1.019,0,0,0-.17.59,0.985,0.985,0,0,0,.23.68,0.753,0.753,0,0,0,.591.26,2.009,2.009,0,0,0,.761-0.26q0.82-.32,1.421-0.49a4.337,4.337,0,0,1,1.182-.17,1.789,1.789,0,0,1,1.361.45,2.043,2.043,0,0,1,.421,1.43v0.46h-0.5a16.346,16.346,0,0,0-3.424.28,3.312,3.312,0,0,0-1.792.9A2.47,2.47,0,0,0,101,22.1a2.777,2.777,0,0,0,.461,1.56,3.161,3.161,0,0,0,1.262,1.1,3.928,3.928,0,0,0,1.782.4,3.222,3.222,0,0,0,1.692-.44,2.61,2.61,0,0,0,1.071-1.22v0.44a1.116,1.116,0,0,0,.33.84,1.173,1.173,0,0,0,.851.32,1.211,1.211,0,0,0,.881-0.31,1.126,1.126,0,0,0,.321-0.85V19.06a4.229,4.229,0,0,0-.991-3.07,4.083,4.083,0,0,0-3.034-1.01h0Zm-0.621,8.38a1.589,1.589,0,0,1-1.111-.41,1.357,1.357,0,0,1-.451-1.05,1.068,1.068,0,0,1,.321-0.82,2.02,2.02,0,0,1,1.061-.42,13.833,13.833,0,0,1,2.083-.12h0.36v0.42a2.419,2.419,0,0,1-.631,1.73,2.138,2.138,0,0,1-1.632.67h0Zm14.818-8.38a3.953,3.953,0,0,0-1.862.43,2.994,2.994,0,0,0-1.262,1.23V11.92a1.036,1.036,0,0,0-.34-0.82,1.314,1.314,0,0,0-.9-0.3,1.3,1.3,0,0,0-.911.32,1.083,1.083,0,0,0-.351.84V23.92a1.142,1.142,0,0,0,.33.86,1.229,1.229,0,0,0,.892.32,1.265,1.265,0,0,0,.9-0.32,1.127,1.127,0,0,0,.34-0.86v-0.5a3.128,3.128,0,0,0,1.272,1.28,3.837,3.837,0,0,0,1.892.46,4.061,4.061,0,0,0,2.253-.64,4.248,4.248,0,0,0,1.541-1.81,6.25,6.25,0,0,0,.551-2.69,6.053,6.053,0,0,0-.551-2.66,4.04,4.04,0,0,0-3.794-2.38h0Zm-0.661,8.24a2.225,2.225,0,0,1-1.852-.82,3.686,3.686,0,0,1-.651-2.34,3.643,3.643,0,0,1,.651-2.33,2.533,2.533,0,0,1,3.7-.01,3.563,3.563,0,0,1,.651,2.3,3.731,3.731,0,0,1-.661,2.36,2.21,2.21,0,0,1-1.842.84h0Z"/>
</svg>
