<?xml version="1.0" encoding="UTF-8" standalone="no"?> <!-- Created with Inkscape (http://www.inkscape.org/) --> <svg xmlns:dc="http://purl.org/dc/elements/1.1/" xmlns:cc="http://creativecommons.org/ns#" xmlns:rdf="http://www.w3.org/1999/02/22-rdf-syntax-ns#" xmlns:svg="http://www.w3.org/2000/svg" xmlns="http://www.w3.org/2000/svg" xmlns:sodipodi="http://sodipodi.sourceforge.net/DTD/sodipodi-0.dtd" xmlns:inkscape="http://www.inkscape.org/namespaces/inkscape" width="100mm" height="100mm" viewBox="0 0 99.999999 100" id="svg3148" inkscape:version="0.92.3 (2405546, 2018-03-11)" sodipodi:docname="edge-icon.svg"><defs id="defs3142"></defs><metadata id="metadata3145"></metadata><g inkscape:label="Layer 1" inkscape:groupmode="layer" id="layer1" transform="translate(-52.820607,-0.58010633)"><g transform="matrix(0.45111629,0,0,-0.45111598,-610.8058,652.49277)" id="g3115" style="stroke-width:0.66933656"><g id="g270" transform="scale(0.103794)" style="stroke-width:0.66933656"><path d="m 16127.2,11795.8 h -1494.6 c -95.5,0 -172.9,77.4 -172.9,172.8 v 1494.6 c 0,95.5 77.4,172.8 172.9,172.8 h 1494.6 c 95.4,0 172.8,-77.3 172.8,-172.8 v -1494.6 c 0,-95.4 -77.4,-172.8 -172.8,-172.8" style="fill:#d1e2f5;fill-opacity:1;fill-rule:nonzero;stroke:none;stroke-width:0.66933656" id="path272" inkscape:connector-curvature="0"></path></g><path d="m 1555.66,1328.69 c 0,-10.17 -8.24,-18.42 -18.42,-18.42 -10.17,0 -18.42,8.25 -18.42,18.42 0,10.17 8.25,18.42 18.42,18.42 10.18,0 18.42,-8.25 18.42,-18.42" style="fill:#4685cb;fill-opacity:1;fill-rule:nonzero;stroke:none;stroke-width:0.06693366" id="path274" inkscape:connector-curvature="0"></path><g id="g276" transform="scale(0.101633)" style="stroke-width:0.66933656"><path d="m 16300,13073.4 c 0,-100.1 -81.1,-181.2 -181.2,-181.2 -100.1,0 -181.2,81.1 -181.2,181.2 0,100.1 81.1,181.2 181.2,181.2 100.1,0 181.2,-81.1 181.2,-181.2" style="fill:#4685cb;fill-opacity:1;fill-rule:nonzero;stroke:none;stroke-width:0.66933656" id="path278" inkscape:connector-curvature="0"></path></g><g id="g280" transform="scale(0.102208)" style="stroke-width:0.66933656"><path d="m 16124.5,12231.9 h -1517.9 c -96.9,0 -175.4,78.6 -175.4,175.6 v 1517.8 c 0,96.9 78.5,175.5 175.4,175.5 h 1517.9 c 96.8,0 175.5,-78.6 175.5,-175.5 v -1517.8 c 0,-97 -78.7,-175.6 -175.5,-175.6 z" style="fill:none;stroke:#1a3657;stroke-width:58.73696136;stroke-linecap:butt;stroke-linejoin:miter;stroke-miterlimit:10;stroke-dasharray:none;stroke-opacity:1" id="path282" inkscape:connector-curvature="0"></path></g><path d="m 1588.9,1397.1 c 0,-10.18 -8.25,-18.42 -18.42,-18.42 -10.17,0 -18.42,8.24 -18.42,18.42 0,10.17 8.25,18.42 18.42,18.42 10.17,0 18.42,-8.25 18.42,-18.42 z" style="fill:none;stroke:#1a3657;stroke-width:6.00338697;stroke-linecap:butt;stroke-linejoin:miter;stroke-miterlimit:10;stroke-dasharray:none;stroke-opacity:1" id="path284" inkscape:connector-curvature="0"></path><path d="m 1588.9,1295.45 c 0,-10.17 -8.25,-18.41 -18.42,-18.41 -10.17,0 -18.42,8.24 -18.42,18.41 0,10.18 8.25,18.42 18.42,18.42 10.17,0 18.42,-8.24 18.42,-18.42 z" style="fill:none;stroke:#1a3657;stroke-width:6.00338697;stroke-linecap:butt;stroke-linejoin:miter;stroke-miterlimit:10;stroke-dasharray:none;stroke-opacity:1" id="path286" inkscape:connector-curvature="0"></path><path d="m 1538.42,1345.93 c 0,-10.17 -8.25,-18.41 -18.42,-18.41 -10.17,0 -18.42,8.24 -18.42,18.41 0,10.18 8.25,18.42 18.42,18.42 10.17,0 18.42,-8.24 18.42,-18.42 z" style="fill:none;stroke:#1a3657;stroke-width:6.00338697;stroke-linecap:butt;stroke-linejoin:miter;stroke-miterlimit:10;stroke-dasharray:none;stroke-opacity:1" id="path288" inkscape:connector-curvature="0"></path><g id="g290" transform="scale(0.100575)" style="stroke-width:0.66933656"><path d="m 16300,13382.3 c 0,-101.1 -82,-183.1 -183.1,-183.1 -101.2,0 -183.2,82 -183.2,183.1 0,101.2 82,183.2 183.2,183.2 101.1,0 183.1,-82 183.1,-183.2 z" style="fill:none;stroke:#1a3657;stroke-width:59.69036484;stroke-linecap:butt;stroke-linejoin:miter;stroke-miterlimit:10;stroke-dasharray:none;stroke-opacity:1" id="path292" inkscape:connector-curvature="0"></path></g><path d="m 1602.54,1345.93 h -64.12" style="fill:none;stroke:#1a3657;stroke-width:6.00338697;stroke-linecap:butt;stroke-linejoin:miter;stroke-miterlimit:10;stroke-dasharray:none;stroke-opacity:1" id="path294" inkscape:connector-curvature="0"></path><g id="g296" transform="scale(0.101828)" style="stroke-width:0.66933656"><path d="m 15603.8,12722 h 313.2 l 383,-383" style="fill:none;stroke:#1a3657;stroke-width:58.95637131;stroke-linecap:round;stroke-linejoin:round;stroke-miterlimit:10;stroke-dasharray:none;stroke-opacity:1" id="path298" inkscape:connector-curvature="0"></path></g><path d="m 1552.06,1397.1 h -31.89 l -39,38.99" style="fill:none;stroke:#1a3657;stroke-width:6.00338697;stroke-linecap:round;stroke-linejoin:round;stroke-miterlimit:10;stroke-dasharray:none;stroke-opacity:1" id="path300" inkscape:connector-curvature="0"></path></g></g></svg> 