<svg xmlns="http://www.w3.org/2000/svg" width="30.000000pt" height="30.000000pt" viewBox="0 0 30.000000 30.000000" preserveAspectRatio="xMidYMid meet"><g transform="translate(0.000000,30.000000) scale(0.100000,-0.100000)" fill="#000000" stroke="none"><path d="M78 279 c-50 -26 -82 -87 -75 -145 16 -142 201 -183 278 -62 27 43 22 122 -10 166 -12 18 -27 32 -32 32 -6 0 2 -16 17 -36 21 -28 28 -47 28 -84 0 -82 -51 -134 -133 -134 -60 0 -103 29 -125 85 -31 77 11 157 93 179 22 6 41 13 41 15 0 12 -48 2 -82 -16z"></path><path d="M112 148 l2 -73 3 63 4 63 39 -22 c22 -13 40 -26 40 -30 0 -4 -15 -16 -32 -28 -18 -11 -27 -21 -20 -21 13 0 82 42 82 50 0 4 -87 57 -112 68 -5 2 -7 -29 -6 -70z"></path></g></svg>