<svg xmlns="http://www.w3.org/2000/svg" height="512px" viewBox="0 0 480 480.16171" width="512px" class=""><g><path d="m394.480469 351.0625c31.96875-46.410156 38.515625-105.765625 17.425781-158.027344-21.089844-52.261718-66.996094-90.453125-122.226562-101.675781l-3.199219 15.6875c73.566406 15.035156 125.132812 81.539063 121.375 156.53125-3.761719 74.996094-61.71875 136.007813-136.421875 143.609375-74.699219 7.605469-143.761719-40.480469-162.554688-113.179688l-15.484375 4c13.664063 53.09375 52.402344 96.167969 103.753907 115.371094 51.351562 19.203125 108.84375 12.117188 153.996093-18.980468l76.65625 76.65625c7.71875 7.820312 19.039063 10.902343 29.65625 8.078124 10.617188-2.820312 18.910157-11.117187 21.730469-21.734374 2.820312-10.621094-.261719-21.933594-8.082031-29.65625zm-9.785157 12.800781 60.074219 60.136719-20.6875 20.6875-60.097656-60.09375c7.480469-6.289062 14.402344-13.210938 20.6875-20.691406zm64.753907 100.136719c-3.882813.007812-7.605469-1.53125-10.34375-4.28125l-3.710938-3.71875 20.6875-20.6875 3.71875 3.71875c4.179688 4.1875 5.425781 10.476562 3.160157 15.941406-2.265626 5.464844-7.597657 9.027344-13.511719 9.027344zm0 0" data-original="" class="active-path" data-old_color="" fill=""></path><path d="m232.082031 32h-192c-4.417969 0-8 3.582031-8 8v160c0 4.417969 3.582031 8 8 8h192c4.417969 0 8-3.582031 8-8v-160c0-4.417969-3.582031-8-8-8zm-8 16v100.6875l-34.34375-34.34375c-3.125-3.121094-8.1875-3.121094-11.3125 0l-34.34375 34.34375-42.34375-42.34375c-2.957031-2.957031-7.691406-3.136719-10.867187-.414062l-42.789063 36.679687v-94.609375zm-176 144v-28.320312l47.582031-40.800782 58.761719 58.761719 11.3125-11.3125-10.34375-10.328125 28.6875-28.6875 40 40v20.6875zm0 0" data-original="" class="active-path" data-old_color="" fill=""></path><path d="m136.082031 112c13.253907 0 24-10.746094 24-24s-10.746093-24-24-24c-13.257812 0-24 10.746094-24 24s10.742188 24 24 24zm0-32c4.417969 0 8 3.582031 8 8s-3.582031 8-8 8-8-3.582031-8-8 3.582031-8 8-8zm0 0" data-original="" class="active-path" data-old_color="" fill=""></path><path d="m72.082031 64h16v16h-16zm0 0" data-original="" class="active-path" data-old_color="" fill=""></path><path d="m184.082031 80h16v16h-16zm0 0" data-original="" class="active-path" data-old_color="" fill=""></path><path d="m8.082031 280h256c4.417969 0 8-3.582031 8-8v-264c0-4.417969-3.582031-8-8-8h-256c-4.417969 0-7.9999998 3.582031-7.9999998 8v264c0 4.417969 3.5820308 8 7.9999998 8zm8-264h240v248h-240zm0 0" data-original="" class="active-path" data-old_color="" fill=""></path><path d="m256.082031 368c-47.445312-.0625-89.722656-29.953125-105.601562-74.664062l-15.078125 5.328124c20.257812 57.25 77.953125 92.382813 138.117187 84.105469 60.160157-8.28125 106.222657-57.691406 110.265625-118.285156 4.042969-60.59375-35.046875-115.6875-93.578125-131.882813l-4.253906 15.398438c54.105469 14.863281 88.867187 67.46875 81.316406 123.070312-7.546875 55.601563-55.078125 97.035157-111.1875 96.929688zm0 0" data-original="" class="active-path" data-old_color="" fill=""></path><path d="m210.074219 434.199219c-48.898438-12.71875-90.453125-44.902344-115-89.0625l-13.992188 7.757812c26.6875 47.996094 71.859375 82.976563 125.007813 96.800781zm0 0" data-original="" class="active-path" data-old_color="" fill=""></path><path d="m225.410156 437.457031-2.65625 15.773438c5.511719.929687 11.125 1.601562 16.671875 2.089843l1.3125-15.953124c-5.105469-.414063-10.257812-1.0625-15.328125-1.910157zm0 0" data-original="" class="active-path" data-old_color="" fill=""></path><path d="m32.082031 224h16v16h-16zm0 0" data-original="" class="active-path" data-old_color="" fill=""></path><path d="m64.082031 224h80v16h-80zm0 0" data-original="" class="active-path" data-old_color="" fill=""></path></g> </svg>